<?xml version="1.0" encoding="UTF-8" standalone="no"?>
<svg
   width="404.3877"
   height="454.91901"
   version="1.1"
   id="svg99"
   sodipodi:docname="Designer (7).svg"
   inkscape:version="1.3.2 (091e20ef0f, 2023-11-25, custom)"
   xmlns:inkscape="http://www.inkscape.org/namespaces/inkscape"
   xmlns:sodipodi="http://sodipodi.sourceforge.net/DTD/sodipodi-0.dtd"
   xmlns="http://www.w3.org/2000/svg"
   xmlns:svg="http://www.w3.org/2000/svg">
  <sodipodi:namedview
     id="namedview99"
     pagecolor="#ffffff"
     bordercolor="#000000"
     borderopacity="0.25"
     inkscape:showpageshadow="2"
     inkscape:pageopacity="0.0"
     inkscape:pagecheckerboard="0"
     inkscape:deskcolor="#d1d1d1"
     inkscape:zoom="0.65290179"
     inkscape:cx="896"
     inkscape:cy="512.32821"
     inkscape:window-width="1920"
     inkscape:window-height="1000"
     inkscape:window-x="0"
     inkscape:window-y="0"
     inkscape:window-maximized="1"
     inkscape:current-layer="svg99" />
  <path
     fill="#23b2a6"
     d="m 388.9187,1.2180018 c 0.348,7.86 1.926,15.9060002 1.908,23.6900002 -0.614,-0.684 -1.15,-1.214 -1.433,-2.106 -0.177,-0.556 -0.273,-1.219 -0.567,-1.728 -2.099,-3.628 -6.962,-0.105 -10.532,-0.931 -0.181,-0.042 -0.36,-0.095 -0.54,-0.142 4.342,-5.755 9.294,-11.7010002 11.164,-18.7830002 z"
     id="path17"
     inkscape:export-filename="../../fav.png"
     inkscape:export-xdpi="96"
     inkscape:export-ydpi="96" />
  <path
     fill="#fa6e50"
     d="m 1.1786978,172.325 c 7.348,-8.451 32.6300002,-13.099 43.5790002,-16.175 2.985,14.109 6.582,55.84 10.8,65.308 l -2.73,4.098 c -11.897,-9.934 -26.63,-27.257 -37.575,-38.989 -4.408,-4.725 -8.8160002,-10.511 -14.0740002,-14.242 z"
     id="path30" />
  <path
     fill="#076368"
     d="m 359.3957,155.856 c 14.565,5.695 30.972,7.335 44.992,14.099 -1.999,7.999 -44.48,45.18 -52.225,55.848 -1.114,-1.061 -2.005,-2.318 -2.952,-3.528 2.323,-3.764 9.187,-57.739 10.185,-66.419 z"
     id="path31" />
  <path
     fill="#cb501b"
     d="m 101.6277,348.841 c 4.185,4.881 8.202,10.022 12.541,14.754 7.804,11.478 18.04,21.986 27.146,32.47 3.743,4.668 7.942,9.307 10.959,14.481 l -1.396,0.001 c -11.086,-4.199 -68.325002,-4.849 -85.819002,-7.195 7.66,-12.597 16.394,-24.722 24.667,-36.932 3.876,-5.72 7.417,-12.389 11.902002,-17.579 z"
     id="path32" />
  <defs
     id="defs33">
    <linearGradient
       id="gradient_0"
       gradientUnits="userSpaceOnUse"
       x1="592.62286"
       y1="493.67413"
       x2="635.3786"
       y2="453.79288"
       gradientTransform="translate(-556.7973,-126.156)">
      <stop
         offset="0"
         stop-color="#FD6B4E"
         id="stop32" />
      <stop
         offset="1"
         stop-color="#DF5338"
         id="stop33" />
    </linearGradient>
  </defs>
  <path
     fill="url(#gradient_0)"
     d="m 21.062698,318.365 6.449,2.074 c 7.887,3.891 16.717,6.563 24.977,9.592 q 24.473,8.824 48.823002,17.984 l 0.316,0.826 c -4.485002,5.19 -8.026002,11.859 -11.902002,17.579 -8.273,12.21 -17.007,24.335 -24.667,36.932 -6.236,-7.857 -41.414,-76.009 -43.996,-84.987 z"
     id="path33"
     style="fill:url(#gradient_0)" />
  <defs
     id="defs35" />
  <path
     fill="#034950"
     d="m 384.3507,318.87 q -15.078,29.955 -30.904,59.521 c -3.665,6.823 -7.036,15.148 -11.842,21.144 -1.322,1.651 -2.437,2.162 -4.421,2.779 -10.975,3.414 -24.985,2.978 -36.478,3.761 q -22.037,1.352 -43.98,3.8 c -1.061,-5.937 6.519,-8.285 7.672,-13.373 6.377,-11.074 30.458,-37.106 39.789,-47.968 25.24,-10.116 54.221,-22.399 80.164,-29.664 z"
     id="path37" />
  <path
     fill="#cb501b"
     d="m 202.7817,359.773 16.419,9.466 c 14.898,9.179 30.957,17.122 45.197,27.263 -1.153,5.088 -8.733,7.436 -7.672,13.373 l -2.726,1.007 c -8.408,8.378 -17.909,15.922 -26.898,23.678 -7.915,6.831 -15.804,14.576 -24.511,20.359 -17.142,-13.995 -36.559,-28.34 -51.713,-44.372 l 1.396,-0.001 c -3.017,-5.174 -7.216,-9.813 -10.959,-14.481 20.931,-11.203 40.77,-24.619 61.467,-36.292 z"
     id="path39" />
  <path
     fill="#fa6e50"
     d="m 152.2737,410.546 q 24.995,-14.218 50.262,-27.945 c -1.417,23.935 -0.27,48.338 0.055,72.318 -17.142,-13.995 -36.559,-28.34 -51.713,-44.372 z"
     id="path40" />
  <path
     fill="#01303a"
     d="m 202.7817,359.773 16.419,9.466 c 14.898,9.179 30.957,17.122 45.197,27.263 -1.153,5.088 -8.733,7.436 -7.672,13.373 l -2.726,1.007 -51.464,-28.281 q -25.267,13.727 -50.262,27.945 c -3.017,-5.174 -7.216,-9.813 -10.959,-14.481 20.931,-11.203 40.77,-24.619 61.467,-36.292 z"
     id="path41" />
  <defs
     id="defs51" />
  <path
     fill="#fd8666"
     d="M 16.147698,1.7700195e-6 C 32.542698,11.039002 47.472698,25.122002 62.614698,37.831002 c 17.27,14.496 35.08,28.342 52.326002,42.882 11.273,9.505 22.606,20.663998 35.005,28.665998 l -1.509,0.936 c -7.864,8.622 -15.549,17.3 -22.935,26.338 -3.429,-2.194 -4.905,-2.242 -8.85,-1.363 -18.114002,4.037 -36.337002,10.989 -54.253002,16.192 -5.599,1.626 -11.883,4.109 -17.641,4.668 -10.949,3.076 -36.2310002,7.724 -43.5790002,16.175 -0.96100005,-1.718 -1.23000005,-3.678 -1.17100005,-5.623 0.413,-13.644 3.13900005,-27.507 4.46400005,-41.128 1.269,-13.047 1.15,-26.892998 3.58,-39.734998 2.7240002,-28.486 4.1810002,-57.547 8.0960002,-85.8390002299805 z"
     id="path58" />
  <path
     fill="#fea380"
     d="M 16.147698,1.7700195e-6 C 32.542698,11.039002 47.472698,25.122002 62.614698,37.831002 c 17.27,14.496 35.08,28.342 52.326002,42.882 11.273,9.505 22.606,20.663998 35.005,28.665998 l -1.509,0.936 c -8.879,-1.158 -32.89,6.031 -43.977,6.864 -7.107002,-7.08 -13.322002,-15.644 -19.678002,-23.408998 q -18.996,-22.918 -37.251,-46.43 c -9.554,-12.164 -20.723,-23.831 -28.884,-36.959 l -1.189,-0.218 c -1.785,5.471 -1.134,12.23 -1.575,17.977 -0.692,9.01 -2.437,17.925 -3.286,26.919 -0.999,10.584 -0.594,22.177 -3.6170002,32.459 l -0.928,-1.679 C 10.775698,57.353002 12.232698,28.292002 16.147698,1.7700195e-6 Z"
     id="path59" />
  <path
     fill="#23b2a6"
     d="m 249.5437,213.02 c 1.281,-6.09 2.776,-10.823 7.38,-15.239 q 0.368,-0.358 0.754,-0.696 0.386,-0.339 0.788,-0.658 0.403,-0.318 0.821,-0.617 0.418,-0.298 0.85,-0.575 0.432,-0.276 0.878,-0.531 0.445,-0.255 0.903,-0.487 0.458,-0.232 0.927,-0.441 0.469,-0.209 0.948,-0.394 0.479,-0.185 0.966,-0.345 0.488,-0.161 0.983,-0.297 0.495,-0.136 0.996,-0.247 0.501,-0.111 1.007,-0.196 0.507,-0.086 1.016,-0.146 0.51,-0.06 1.022,-0.095 0.512,-0.034 1.026,-0.043 0.513,-0.008 1.026,0.009 c 7.313,0.266 12.005,3.745 16.848,8.888 9.249,2.887 54.154,21.934 59.486,20.802 l 1.042,0.563 c 0.947,1.21 1.838,2.467 2.952,3.528 10.666,29.543 19.69,59.674 30.412,89.222 l 1.776,3.845 c -25.943,7.265 -54.924,19.548 -80.164,29.664 -6.545,-9.479 -14.85,-18.384 -22.215,-27.289 -24.262,-29.335 -50.535,-57.243 -74.302,-86.881 l -0.784,0.457 -3.768,-4.976 c 5.197,-4.683 38.159,-14.089 46.426,-16.825 z"
     id="path61" />
  <path
     fill="#01303a"
     d="m 249.5437,213.02 c 1.281,-6.09 2.776,-10.823 7.38,-15.239 q 0.368,-0.358 0.754,-0.696 0.386,-0.339 0.788,-0.658 0.403,-0.318 0.821,-0.617 0.418,-0.298 0.85,-0.575 0.432,-0.276 0.878,-0.531 0.445,-0.255 0.903,-0.487 0.458,-0.232 0.927,-0.441 0.469,-0.209 0.948,-0.394 0.479,-0.185 0.966,-0.345 0.488,-0.161 0.983,-0.297 0.495,-0.136 0.996,-0.247 0.501,-0.111 1.007,-0.196 0.507,-0.086 1.016,-0.146 0.51,-0.06 1.022,-0.095 0.512,-0.034 1.026,-0.043 0.513,-0.008 1.026,0.009 c 7.313,0.266 12.005,3.745 16.848,8.888 2.767,7.021 4.322,13.584 1.257,20.824 q -0.209,0.491 -0.444,0.971 -0.234,0.48 -0.492,0.948 -0.258,0.468 -0.54,0.921 -0.281,0.454 -0.585,0.893 -0.305,0.439 -0.631,0.862 -0.326,0.423 -0.673,0.829 -0.347,0.406 -0.714,0.793 -0.368,0.388 -0.754,0.757 -0.387,0.368 -0.792,0.716 -0.404,0.349 -0.826,0.676 -0.422,0.328 -0.86,0.633 -0.438,0.306 -0.891,0.589 -0.453,0.283 -0.92,0.542 -0.467,0.26 -0.946,0.495 -0.479,0.236 -0.97,0.446 -0.49,0.211 -0.991,0.397 c -5.179,1.922 -10.967,1.779 -15.952,-0.669 -5.159,-2.534 -9.161,-7.478 -10.883,-12.936 q -0.998,-3.235 -1.532,-6.577 z"
     id="path62" />
  <path
     fill="#fbf9e5"
     d="m 264.6837,198.32 c 0.776,0.012 1.551,0.029 2.325,0.101 2.414,0.224 4.97,1.245 6.389,3.323 1.284,1.882 1.501,3.739 0.947,5.921 -0.646,2.542 -3.032,3.938 -5.068,5.29 -2.702,-0.378 -5.377,-0.824 -7.416,-2.848 -1.524,-1.513 -1.983,-3.219 -1.824,-5.322 0.204,-2.705 2.805,-4.734 4.647,-6.465 z"
     id="path63" />
  <path
     fill="#10948e"
     d="m 207.6697,234.364 c 2.946,-1.914 4.98,-1.295 8.343,-0.585 15.305,3.231 30.588,9.517 44.936,15.652 14.086,6.023 28.457,11.974 42.034,19.088 16.402,8.595 32.268,18.878 47.971,28.709 5.766,3.61 26.242,19.46 31.621,17.797 l 1.776,3.845 c -25.943,7.265 -54.924,19.548 -80.164,29.664 -6.545,-9.479 -14.85,-18.384 -22.215,-27.289 -24.262,-29.335 -50.535,-57.243 -74.302,-86.881 z"
     id="path64" />
  <defs
     id="defs67" />
  <defs
     id="defs71" />
  <defs
     id="defs73" />
  <path
     fill="#7ff7da"
     d="m 256.1247,110.038 c 5.938,-7.556 34.934,-29.526998 43.805,-36.874998 26.602,-22.037 52.572,-45.533 79.963,-66.5450002 2.863,-2.196 5.657,-4.051 9.026,-5.4 -1.87,7.082 -6.822,13.0280002 -11.164,18.7830002 0.18,0.047 0.359,0.1 0.54,0.142 3.57,0.826 8.433,-2.697 10.532,0.931 0.294,0.509 0.39,1.172 0.567,1.728 0.283,0.892 0.819,1.422 1.433,2.106 4.484,48.385 9.713,96.621998 13.561,145.046998 -14.02,-6.764 -30.427,-8.404 -44.992,-14.099 -0.998,8.68 -7.862,62.655 -10.185,66.419 l -1.042,-0.563 c -5.332,1.132 -50.237,-17.915 -59.486,-20.802 -4.843,-5.143 -9.535,-8.622 -16.848,-8.888 q -0.513,-0.017 -1.026,-0.009 -0.514,0.009 -1.026,0.043 -0.512,0.035 -1.022,0.095 -0.509,0.06 -1.015,0.146 -0.507,0.085 -1.008,0.196 -0.501,0.111 -0.996,0.247 -0.495,0.136 -0.983,0.297 -0.487,0.16 -0.966,0.345 -0.479,0.185 -0.948,0.394 -0.469,0.209 -0.927,0.441 -0.458,0.232 -0.903,0.487 -0.446,0.255 -0.878,0.531 -0.433,0.277 -0.85,0.575 -0.418,0.299 -0.821,0.617 -0.402,0.319 -0.788,0.658 -0.386,0.338 -0.754,0.696 c -4.604,4.416 -6.099,9.149 -7.38,15.239 -8.267,2.736 -41.229,12.142 -46.426,16.825 l -0.522,-0.39 c 1.048,-21.144 0.744,-42.31 0.72,-63.474 -0.021,-18.523 0.325,-37.143 -0.555,-55.645 l 0.573,-0.996 c 11.189,-0.072 44.001,-2.001 52.791,0.698 z"
     id="path83" />
  <path
     fill="#10948e"
     d="m 256.6987,110.559 c 13.195,0.216 29.941,5.178 43.062,7.812 q -4.048,4.558 -8.564,8.652 -4.517,4.094 -9.449,7.676 l -2.555,2.133 c -7.508,-8.776 -15.3,-17.22 -22.494,-26.273 z"
     id="path84" />
  <path
     fill="#034950"
     d="m 281.7477,134.699 c 23.276,4.341 54.442,14.109 77.648,21.157 -0.998,8.68 -7.862,62.655 -10.185,66.419 l -1.042,-0.563 c -23.986,-27.067 -46.894,-56.222 -68.976,-84.88 z"
     id="path85" />
  <defs
     id="defs86">
    <linearGradient
       id="gradient_6"
       gradientUnits="userSpaceOnUse"
       x1="876.0755"
       y1="292.12262"
       x2="983.51331"
       y2="183.32536"
       gradientTransform="translate(-556.7973,-126.156)">
      <stop
         offset="0"
         stop-color="#037473"
         id="stop85" />
      <stop
         offset="1"
         stop-color="#25BDB3"
         id="stop86" />
    </linearGradient>
  </defs>
  <path
     fill="url(#gradient_6)"
     d="m 377.7547,20.001002 c 0.18,0.047 0.359,0.1 0.54,0.142 3.57,0.826 8.433,-2.697 10.532,0.931 0.294,0.509 0.39,1.172 0.567,1.728 0.283,0.892 0.819,1.422 1.433,2.106 4.484,48.385 9.713,96.621998 13.561,145.046998 -14.02,-6.764 -30.427,-8.404 -44.992,-14.099 -23.206,-7.048 -54.372,-16.816 -77.648,-21.157 q 4.932,-3.582 9.449,-7.676 4.516,-4.094 8.564,-8.652 c 15.707,-17.728 30.432,-36.346998 45.099,-54.935998 11.226,-14.226 22.77,-28.402 32.895,-43.434 z"
     id="path86"
     style="fill:url(#gradient_6)" />
  <path
     fill="#fd8666"
     d="m 149.9457,109.379 c 15.527,-1.96 37.177,-0.159 53.388,-0.039 l -0.573,0.996 c 0.88,18.502 0.534,37.122 0.555,55.645 0.024,21.164 0.328,42.33 -0.72,63.474 l 0.522,0.39 3.768,4.976 0.784,-0.457 c 23.767,29.638 50.04,57.546 74.302,86.881 7.365,8.905 15.67,17.81 22.215,27.289 -9.331,10.862 -33.412,36.894 -39.789,47.968 -14.24,-10.141 -30.299,-18.084 -45.197,-27.263 l -16.419,-9.466 c -20.697,11.673 -40.536,25.089 -61.467,36.292 -9.106,-10.484 -19.342,-20.992 -27.146,-32.47 -4.339,-4.732 -8.356,-9.873 -12.541,-14.754 l -0.316,-0.826 q -24.350002,-9.16 -48.823002,-17.984 c -8.26,-3.029 -17.09,-5.701 -24.977,-9.592 l -6.449,-2.074 c 4.414,-9.641 7.382,-20.856 10.915,-30.897 7.218,-20.518 14.762,-41.022 20.85,-61.912 l 2.73,-4.098 c -4.218,-9.468 -7.815,-51.199 -10.8,-65.308 5.758,-0.559 12.042,-3.042 17.641,-4.668 17.916,-5.203 36.139,-12.155 54.253002,-16.192 3.945,-0.879 5.421,-0.831 8.85,1.363 7.386,-9.038 15.071,-17.716 22.935,-26.338 z"
     id="path87" />
  <defs
     id="defs88">
    <linearGradient
       id="gradient_7"
       gradientUnits="userSpaceOnUse"
       x1="732.67767"
       y1="447.11731"
       x2="699.44623"
       y2="404.12857"
       gradientTransform="translate(-556.7973,-126.156)">
      <stop
         offset="0"
         stop-color="#FFFFDE"
         id="stop87" />
      <stop
         offset="1"
         stop-color="#FBFCF2"
         id="stop88" />
    </linearGradient>
  </defs>
  <path
     fill="url(#gradient_7)"
     d="m 202.5957,229.455 0.522,0.39 3.768,4.976 -1.067,0.845 -1.685,-1.606 c -3.585,13.714 -1.142,37.603 -1.085,52.403 -11.053,-0.063 -24.302,-1.617 -35.13,0.006 q -0.159,15.059 -0.161,30.118 l 8.37,8.061 c -12.114,5.419 -63.288,24.006 -74.5,24.193 l -0.316,-0.826 c 6.136,-10.813 18.443,-22.981 26.644,-32.716 q 36.362,-43.476 74.096,-85.766 z"
     id="path88"
     style="fill:url(#gradient_7)" />
  <path
     fill="#fdc861"
     d="m 176.1277,324.648 c 7.003,6.589 16.926,14.115 22.369,21.895 l 4.215,3.04 q -0.019,5.095 0.07,10.19 c -20.697,11.673 -40.536,25.089 -61.467,36.292 -9.106,-10.484 -19.342,-20.992 -27.146,-32.47 -4.339,-4.732 -8.356,-9.873 -12.541,-14.754 11.212,-0.187 62.386,-18.774 74.5,-24.193 z"
     id="path89" />
  <path
     fill="#fea380"
     d="m 115.5237,200.345 c 5.255,-5.312 10.352,-8.59 18.073,-8.606 q 0.499,-0.004 0.997,0.018 0.498,0.022 0.994,0.069 0.496,0.048 0.99,0.12 0.493,0.073 0.982,0.171 0.488,0.098 0.972,0.221 0.483,0.123 0.959,0.271 0.476,0.147 0.944,0.319 0.468,0.172 0.927,0.368 0.458,0.196 0.906,0.415 0.448,0.219 0.884,0.461 0.436,0.241 0.859,0.505 0.423,0.264 0.832,0.549 0.409,0.285 0.803,0.591 0.394,0.306 0.771,0.631 0.378,0.326 0.738,0.671 0.361,0.344 0.703,0.707 c 3.764,3.961 5.504,8.763 6.476,14.045 11.924,4.406 30.46,8.623 40.754,15.296 l -0.016,1.22 c 1.25,0.945 1.379,0.75 2.969,0.617 -11.059,3.902 -22.65,6.254 -33.712,10.544 -35.808,13.886 -69.659002,32.558 -102.166002,52.805 -12.631,7.868 -25.608,15.744 -37.258,25.04 l -0.076,1.006 2.62,0.77 c 0.039,0.336 0.213,0.972 0.063,1.27 l -6.449,-2.074 c 4.414,-9.641 7.382,-20.856 10.915,-30.897 7.218,-20.518 14.762,-41.022 20.85,-61.912 l 2.73,-4.098 0.804,-0.107 c 3.781,1.112 51.253002,-18.193 59.162002,-21.006 z"
     id="path90" />
  <path
     fill="#01303a"
     d="m 115.5237,200.345 c 5.255,-5.312 10.352,-8.59 18.073,-8.606 q 0.499,-0.004 0.997,0.018 0.498,0.022 0.994,0.069 0.496,0.048 0.99,0.12 0.493,0.073 0.982,0.171 0.488,0.098 0.972,0.221 0.483,0.123 0.959,0.271 0.476,0.147 0.944,0.319 0.468,0.172 0.927,0.368 0.458,0.196 0.906,0.415 0.448,0.219 0.884,0.461 0.436,0.241 0.859,0.505 0.423,0.264 0.832,0.549 0.409,0.285 0.803,0.591 0.394,0.306 0.771,0.631 0.378,0.326 0.738,0.671 0.361,0.344 0.703,0.707 c 3.764,3.961 5.504,8.763 6.476,14.045 -0.17,3.036 -0.465,6.302 -1.572,9.157 q -0.188,0.49 -0.401,0.97 -0.212,0.48 -0.448,0.949 -0.236,0.469 -0.495,0.926 -0.259,0.457 -0.54,0.9 -0.28,0.444 -0.583,0.873 -0.302,0.429 -0.626,0.843 -0.323,0.413 -0.666,0.81 -0.344,0.397 -0.706,0.777 -0.363,0.38 -0.744,0.741 -0.381,0.362 -0.779,0.704 -0.398,0.342 -0.813,0.664 -0.414,0.322 -0.844,0.623 -0.43,0.301 -0.874,0.58 -0.445,0.28 -0.902,0.537 -0.458,0.258 -0.928,0.492 -0.469,0.234 -0.95,0.445 -0.479,0.211 -0.967,0.398 -0.489,0.186 -0.986,0.349 -0.497,0.162 -1.002,0.299 -0.504,0.138 -1.015,0.25 -0.511,0.112 -1.027,0.199 -0.515,0.087 -1.035,0.148 -0.519,0.061 -1.041,0.097 -0.522,0.035 -1.045,0.044 -0.523,0.01 -1.045,-0.007 -0.523,-0.017 -1.044,-0.059 -0.522,-0.042 -1.04,-0.111 -0.519,-0.068 -1.033,-0.162 -0.515,-0.094 -1.024,-0.213 -0.509,-0.119 -1.012,-0.264 -0.502,-0.144 -0.997,-0.313 -0.495,-0.17 -0.981,-0.363 -0.482,-0.193 -0.953,-0.41 -0.472,-0.217 -0.932,-0.457 -0.46,-0.24 -0.907,-0.503 -0.448,-0.262 -0.882,-0.547 -0.434,-0.285 -0.853,-0.591 -0.419,-0.306 -0.822,-0.632 -0.404,-0.327 -0.791,-0.673 -0.386,-0.346 -0.755,-0.711 -0.369,-0.365 -0.719,-0.748 -0.351,-0.383 -0.681,-0.783 -0.331,-0.4 -0.642,-0.816 -0.31,-0.416 -0.599,-0.847 -0.29,-0.43 -0.557,-0.875 -0.268,-0.445 -0.513,-0.902 -0.245,-0.458 -0.467,-0.927 -0.222,-0.469 -0.42,-0.949 c -3.074,-7.483 -1.191,-14.33 1.848,-21.438 z"
     id="path91" />
  <path
     fill="#fbf9e5"
     d="m 127.7077,197.49 c 2.432,0.714 4.773,1.45 6.472,3.453 1.347,1.587 1.915,3.455 1.536,5.519 -0.626,3.412 -2.856,4.979 -5.49,6.824 -3.122,-0.521 -6.059,-1.697 -7.895,-4.44 -0.989,-1.478 -1.259,-3.363 -0.806,-5.071 0.878,-3.315 3.463,-4.64 6.183,-6.285 z"
     id="path92" />
  <path
     fill="#fadeb7"
     d="m 203.0487,286.463 c -0.057,-14.8 -2.5,-38.689 1.085,-52.403 l 1.685,1.606 1.067,-0.845 0.784,-0.457 c 23.767,29.638 50.04,57.546 74.302,86.881 7.365,8.905 15.67,17.81 22.215,27.289 -9.331,10.862 -33.412,36.894 -39.789,47.968 -14.24,-10.141 -30.299,-18.084 -45.197,-27.263 l -16.419,-9.466 q -0.089,-5.095 -0.07,-10.19 l -4.215,-3.04 c -5.443,-7.78 -15.366,-15.306 -22.369,-21.895 l -8.37,-8.061 q 0.002,-15.059 0.161,-30.118 c 10.828,-1.623 24.077,-0.069 35.13,-0.006 z"
     id="path93" />
  <path
     fill="#01303a"
     d="m 167.9187,286.469 c 23.085,2.008 46.796,-0.1 69.989,0.591 l -0.037,29.763 c -2.969,2.425 -6.091,4.781 -8.799,7.496 q -12.937,12.886 -26.36,25.264 l -4.215,-3.04 c -5.443,-7.78 -15.366,-15.306 -22.369,-21.895 l -8.37,-8.061 q 0.002,-15.059 0.161,-30.118 z"
     id="path94" />
  <path
     fill="#fcb345"
     d="m 229.0717,324.319 c 13.34,5.696 27.235,10.063 40.964,14.71 9.499,3.216 19.211,7.119 29.044,9.122 l 5.107,0.383 c -9.331,10.862 -33.412,36.894 -39.789,47.968 -14.24,-10.141 -30.299,-18.084 -45.197,-27.263 l -16.419,-9.466 q -0.089,-5.095 -0.07,-10.19 13.423,-12.378 26.36,-25.264 z"
     id="path95" />
  <path
     fill="#ef8515"
     d="m 299.0797,348.151 5.107,0.383 c -9.331,10.862 -33.412,36.894 -39.789,47.968 -14.24,-10.141 -30.299,-18.084 -45.197,-27.263 15.417,-6.53 63.821,-20.969 79.879,-21.088 z"
     id="path96" />
  <path
     fill="#fadeb7"
     d="m 149.9457,109.379 c 15.527,-1.96 37.177,-0.159 53.388,-0.039 l -0.573,0.996 c 0.88,18.502 0.534,37.122 0.555,55.645 0.024,21.164 0.328,42.33 -0.72,63.474 l -0.544,0.078 -2.218,-0.771 -4.746,-1.595 c -10.294,-6.673 -28.83,-10.89 -40.754,-15.296 -0.972,-5.282 -2.712,-10.084 -6.476,-14.045 q -0.342,-0.363 -0.703,-0.707 -0.36,-0.345 -0.738,-0.67 -0.377,-0.326 -0.771,-0.632 -0.394,-0.306 -0.803,-0.591 -0.409,-0.285 -0.832,-0.549 -0.423,-0.264 -0.859,-0.505 -0.436,-0.242 -0.884,-0.461 -0.448,-0.219 -0.906,-0.415 -0.459,-0.196 -0.927,-0.368 -0.468,-0.172 -0.944,-0.319 -0.476,-0.148 -0.959,-0.271 -0.484,-0.123 -0.972,-0.221 -0.489,-0.098 -0.982,-0.171 -0.494,-0.072 -0.99,-0.12 -0.496,-0.047 -0.994,-0.069 -0.498,-0.022 -0.997,-0.018 c -7.721,0.016 -12.818,3.294 -18.073,8.606 -7.909,2.813 -55.381002,22.118 -59.162002,21.006 l -0.804,0.107 c -4.218,-9.468 -7.815,-51.199 -10.8,-65.308 5.758,-0.559 12.042,-3.042 17.641,-4.668 17.916,-5.203 36.139,-12.155 54.253002,-16.192 3.945,-0.879 5.421,-0.831 8.85,1.363 7.386,-9.038 15.071,-17.716 22.935,-26.338 z"
     id="path97" />
  <path
     fill="#fea380"
     d="m 157.4867,180.432 c 6.761,-12.496 15.323,-24.301 22.951,-36.302 6.937,-10.914 13.721,-24.211 22.323,-33.794 0.88,18.502 0.534,37.122 0.555,55.645 0.024,21.164 0.328,42.33 -0.72,63.474 l -0.544,0.078 -2.218,-0.771 0.475,-0.838 c -5.298,-10.938 -33.403,-35.745 -42.822,-47.492 z"
     id="path98" />
  <path
     fill="#cb501b"
     d="m 44.757698,156.15 c 5.758,-0.559 12.042,-3.042 17.641,-4.668 17.916,-5.203 36.139,-12.155 54.253002,-16.192 3.945,-0.879 5.421,-0.831 8.85,1.363 l -48.908002,59.713 c -5.924,7.206 -16.051,17.159 -20.232,24.985 l -0.804,0.107 c -4.218,-9.468 -7.815,-51.199 -10.8,-65.308 z"
     id="path99" />
</svg>
