<svg width="60" height="60" viewBox="0 0 60 60" xmlns="http://www.w3.org/2000/svg">
  <g fill="currentColor" fill-rule="evenodd" opacity="0.1">
    <!-- Dog paw -->
    <path d="M15 15a2 2 0 1 1-4 0 2 2 0 0 1 4 0zm4-3a1.5 1.5 0 1 1-3 0 1.5 1.5 0 0 1 3 0zm4 0a1.5 1.5 0 1 1-3 0 1.5 1.5 0 0 1 3 0zm-2 4a2.5 2.5 0 1 1-5 0 2.5 2.5 0 0 1 5 0z"/>
    <!-- Cat paw -->
    <path d="M45 45a2 2 0 1 1-4 0 2 2 0 0 1 4 0zm4-3a1.5 1.5 0 1 1-3 0 1.5 1.5 0 0 1 3 0zm4 0a1.5 1.5 0 1 1-3 0 1.5 1.5 0 0 1 3 0zm-2 4a2.5 2.5 0 1 1-5 0 2.5 2.5 0 0 1 5 0z"/>
  </g>
</svg> 